<svg xmlns="http://www.w3.org/2000/svg" viewBox="0 0 256 256"><defs><style>.cls-1{fill:#e44d26;}.cls-2{fill:#f16529;}.cls-3{fill:#ebebeb;}.cls-4{fill:#fff;}.cls-5{fill:#1572b6;}.cls-6{fill:#33a9dc;}.cls-7{fill:#f0db4f;}.cls-8{fill:#323330;}</style></defs><title>html-css-js</title><path class="cls-1" d="M43.88,229.5l-18-202.42h204.2L212.2,229.45,127.89,252Z"/><path class="cls-2" d="M128,232.34l72.11-19.6,15.8-177.32H128Z"/><path class="cls-3" d="M128,113.37H89.4l-2.8-31.48h41.4V50.42H52.39l.7,7.84,5.61,63H128Z"/><path class="cls-3" d="M128,174.89H93.6l-4,44.85L128,222.1Z"/><path class="cls-4" d="M127.91,113.37V81.89h38.6l-3.5,39.32-35.1,0Z"/><path class="cls-4" d="M128,174.89v47.22l38.4-10.36,3.5-39.32Z"/><path class="cls-5" d="M212.12,30.5H43.88L59.7,206.4l68.19,18.1,68.18-18.1Z"/><path class="cls-6" d="M128,46.5V208.3l57.5-15.3L198.8,46.5Z"/><path class="cls-3" d="M128,86.5H98.2l-2.8-20h32.6Z"/><path class="cls-3" d="M128,146.5H101l-2.8-20h29.8Z"/><path class="cls-4" d="M128,86.5v-20h27l-2.8,20Z"/><path class="cls-4" d="M128,146.5v-20h24.2l-2.8,20Z"/><path class="cls-7" d="M64,4.5h128v247H64Z"/><path class="cls-8" d="M178,184.5c0,10.77-4.3,16.3-13.1,16.3s-13.1-5.53-13.1-16.3,4.3-16.3,13.1-16.3,13.1,5.53,13.1,16.3m-13.1-24.1c-12.5,0-20.9,8.6-20.9,24.1s8.4,24.1,20.9,24.1,20.9-8.6,20.9-24.1-8.4-24.1-20.9-24.1"/><path class="cls-8" d="M118.5,184.5c0,10.77-4.3,16.3-13.1,16.3s-13.1-5.53-13.1-16.3,4.3-16.3,13.1-16.3,13.1,5.53,13.1,16.3m-13.1-24.1c-12.5,0-20.9,8.6-20.9,24.1s8.4,24.1,20.9,24.1,20.9-8.6,20.9-24.1-8.4-24.1-20.9-24.1"/></svg>